PathFileType	4	(X/Y/Z)	/Users/visionmauri/Downloads/Videos/OAW09-top_Sports2D/OAW09-top_Sports2D_px_person00.trc
DataRate	CameraRate	NumFrames	NumMarkers	Units	OrigDataRate	OrigDataStartFrame	OrigNumFrames
30.0	30.0	9	22	m	30.0	774	2065
Frame#	Time	Hip			RHip			RKnee			RAnkle			RBigToe			RSmallToe			RHeel			LHip			LKnee			LAnkle			LBigToe			LSmallToe			LHeel			Neck			Head			Nose			RShoulder			RElbow			RWrist			LShoulder			LElbow			LWrist			
		X1	Y1	Z1	X2	Y2	Z2	X3	Y3	Z3	X4	Y4	Z4	X5	Y5	Z5	X6	Y6	Z6	X7	Y7	Z7	X8	Y8	Z8	X9	Y9	Z9	X10	Y10	Z10	X11	Y11	Z11	X12	Y12	Z12	X13	Y13	Z13	X14	Y14	Z14	X15	Y15	Z15	X16	Y16	Z16	X17	Y17	Z17	X18	Y18	Z18	X19	Y19	Z19	X20	Y20	Z20	X21	Y21	Z21	X22	Y22	Z22
774	25.812499999999996	519.8347780493409	585.2638987843467	0.0	522.6991361295898	587.1945173197777	0.0	519.5234504528757	638.7150036857661	0.0	523.1924843054289	686.773234937303	0.0	505.9495603630056	700.0549357401003	0.0	507.603233073072	696.9854167950697	0.0	527.2382826756891	696.7595733003992	0.0	519.6816175828949	586.5319251821871	0.0	510.70322293909527	637.938694892765	0.0	510.67023348403706	687.1471417575196	0.0	487.7009154058613	699.3896053834462	0.0	492.76439027123615	701.171784749633	0.0	518.7956828040676	697.6934275482935	0.0	506.1311054015975	518.657453643853	0.0	493.25934556131995	495.70071366704167	0.0	492.0673668516854	512.8548052544016	0.0	512.6237177144524	527.3497982378786	0.0	520.3854168666422	560.8321220520772	0.0	508.8017160682256	586.7156511955388	0.0	510.0876138296367	525.8143112863959	0.0	521.24938439149	560.4780720291539	0.0	513.6770693914998	588.4313027959688	0.0
775	25.84584948320413	517.6090462041259	586.3813064272323	0.0	519.9044460949318	588.2142171457243	0.0	518.0332179098732	639.336338870811	0.0	522.7325831818088	686.8152347995238	0.0	506.967572818403	700.130683088434	0.0	507.73567393113547	697.0291830205914	0.0	526.4520310794057	696.6524384230291	0.0	518.3857330429614	587.7540933984593	0.0	510.81470320112817	638.5386964201663	0.0	510.79037183502413	687.3330348728202	0.0	487.8236486283993	699.5163013255997	0.0	493.4011085969126	701.0334997960845	0.0	518.6948995882994	697.9052710641122	0.0	506.5636060325817	519.0725660939513	0.0	494.53809120252356	495.80328022790457	0.0	492.56952475068084	511.55721180231194	0.0	510.4301202323904	528.3984029408533	0.0	513.7186039691153	562.4111953084083	0.0	508.7483764946537	588.1864800148953	0.0	511.3448149668056	526.1496999308196	0.0	521.7677885257543	561.2492296900608	0.0	514.331273362709	589.9316510601302	0.0
776	25.879198966408264	515.7830960817432	587.3004484156602	0.0	517.3757572128472	589.5761195294978	0.0	516.8599579309857	640.1410564856844	0.0	522.4368635185987	686.9615959739073	0.0	508.1646725679398	700.1715244210679	0.0	508.44751079199733	696.9482463027073	0.0	525.8862000592803	696.2751407036757	0.0	516.9124021116353	589.179287920332	0.0	510.7640380921682	639.7836026052901	0.0	510.43414278601267	687.6018559062786	0.0	487.7410395056698	699.6754818900207	0.0	493.40973444271464	700.8692288099265	0.0	517.7867481363024	698.0928917509472	0.0	506.9831896107749	518.6596760126872	0.0	496.6525938088262	494.8518880581534	0.0	493.08581644805736	509.28613048676795	0.0	508.19754616362536	528.9614416233965	0.0	509.28846404367783	563.876209916935	0.0	508.9393324269527	590.9258975219664	0.0	512.923836703863	526.3657442294915	0.0	521.8643224661455	562.6604622548325	0.0	514.8541536666874	592.0089887417181	0.0
777	25.912548449612398	514.6703005075825	587.7098487814155	0.0	515.0832531607083	590.2978428661177	0.0	515.8135708282318	641.0161411398587	0.0	522.3960034923767	686.7990616045204	0.0	509.4494399968547	699.9008330681929	0.0	510.128836161426	696.6815901664819	0.0	525.8663875173514	695.6177507568682	0.0	515.7458505649087	589.9564451955142	0.0	510.6562647418218	640.9706982945647	0.0	509.9976904721115	687.7765345805643	0.0	487.5874869279904	699.8490558552382	0.0	493.17794998627664	700.7451580852602	0.0	516.9370795092735	698.0637050227532	0.0	507.1390208026883	517.9168249352623	0.0	498.31250772696694	492.84334682600223	0.0	493.5597165919899	507.5017960643941	0.0	506.4261183160785	529.078682705447	0.0	507.174416324486	564.2905385099293	0.0	508.2439312347978	592.0978279572928	0.0	514.4519655712038	526.5386167174377	0.0	521.8477926919261	563.7341209455985	0.0	515.473173059148	593.1232409480781	0.0
778	25.945897932816532	513.7281395748071	587.9257607450946	0.0	512.7160220201655	590.2782080026084	0.0	514.5135004294561	641.4252049972582	0.0	522.3559109163358	685.6747887034085	0.0	511.67508300870674	698.8063020743966	0.0	512.7642407218691	696.3401971312079	0.0	526.3077975083534	694.242021128321	0.0	515.2200876772899	590.0265991346622	0.0	510.61579758073015	641.5094782638931	0.0	509.67866572064963	687.8748505981134	0.0	487.57422092839016	699.8656832101542	0.0	493.2209360241094	700.5847798125637	0.0	516.3231996450763	697.839056873583	0.0	507.15241156190336	517.5737313113247	0.0	498.84797166139276	490.2400124260533	0.0	493.7550859429315	506.7118607664852	0.0	504.9528925950239	529.0561317060184	0.0	505.3612332847152	563.6909116672315	0.0	506.5557059288495	590.9741284496282	0.0	515.6332395850633	526.9348478002022	0.0	522.0267962199853	564.0290987458015	0.0	515.8929224029922	592.8122084895541	0.0
779	25.979247416020666	512.5995797848592	588.2493345887766	0.0	510.8976830318061	590.157336002394	0.0	512.7255567348111	640.8538315808568	0.0	522.1848126277803	683.3259089133516	0.0	515.1031123903399	696.8249278706021	0.0	515.8352266781144	695.9707368324061	0.0	526.7339322133839	691.610546092791	0.0	514.9734316064882	589.8783634756136	0.0	510.62230022228044	641.4579481966922	0.0	509.3718139154137	688.02824910219	0.0	487.7145543678125	699.681919926151	0.0	493.7042767997913	700.3733059679972	0.0	515.5055593588419	697.7752602211033	0.0	507.339865132301	517.8581668474532	0.0	499.1649798923824	487.6959481965089	0.0	494.0481856271785	506.06274947915847	0.0	504.14642589309614	529.0672729931698	0.0	502.9337038277071	563.2431735264197	0.0	504.7322929872298	589.4448637397303	0.0	516.364727320115	527.5525172972839	0.0	522.2808493394962	564.017400733652	0.0	515.9353279243478	592.2235729817824	0.0
780	26.012596899224803	511.18495214713965	588.8071894611414	0.0	509.2901928594202	590.5032855585072	0.0	509.699641445227	639.8907219444903	0.0	522.0288038254181	680.7407451153822	0.0	518.2207860583923	695.1989534091555	0.0	518.0568767314847	695.5690810199883	0.0	526.8656618614262	688.4249193925019	0.0	514.3497828287817	590.1622404625791	0.0	510.6305392921744	641.5384533689784	0.0	509.0201985130868	688.2069655332157	0.0	487.8831287941728	699.3792278127426	0.0	494.33084089726304	700.3056121705221	0.0	514.6280665854101	698.0892856112324	0.0	507.7166002336171	518.5344159194466	0.0	500.00681003099686	485.95827492507055	0.0	494.8732286475969	505.4393034997566	0.0	503.5975011641347	529.1595912898201	0.0	501.0637445043144	563.4789288330059	0.0	503.16590160511146	589.2159614502966	0.0	516.9350633442936	528.0248826002374	0.0	522.407160693312	564.2177808386741	0.0	516.1531822658956	592.9075567434849	0.0
781	26.045946382428937	509.4763801257209	589.5405927813015	0.0	506.8186033212466	591.1757210350038	0.0	505.11840607656876	639.4450688175249	0.0	521.7712476251476	679.1703746034747	0.0	519.4474935049344	695.205421314142	0.0	518.5074918912054	695.2251021152482	0.0	526.7373191524232	686.05947387989	0.0	513.2576826690772	590.9351566852879	0.0	510.5233639871905	642.0650277234231	0.0	508.79306505526046	688.3004693166667	0.0	488.06028001227605	699.0110417242728	0.0	494.6333151951571	700.408298694213	0.0	514.3537397417775	698.5368678603793	0.0	508.00856755765955	519.1632013335693	0.0	500.92189818601827	485.4352869538952	0.0	495.8910388377054	505.5390204999383	0.0	502.2882756952719	529.4022949748545	0.0	500.6792560758917	563.9177117303207	0.0	501.53072807999956	590.4044842600657	0.0	517.6493296861855	528.1323791329855	0.0	522.4495791159915	564.671123231525	0.0	517.0612529267527	595.087896780614	0.0
782	26.07929586563307	507.89950763194054	590.0197191388934	0.0	503.9491851408592	591.5210552389043	0.0	500.35341813827904	639.287896170564	0.0	521.1326942643676	678.5366901526196	0.0	519.2698995822183	696.2495710877303	0.0	518.1087545557986	694.9327680100405	0.0	526.4130507034785	684.7671887855536	0.0	512.1517918314647	591.4602311886437	0.0	510.13039307481165	642.377686082826	0.0	508.86365287077206	688.3280717312726	0.0	488.35715899972377	698.7304730255623	0.0	494.5111657007914	700.422084558099	0.0	514.8356495763512	698.8224876005021	0.0	508.0880061409666	519.4586021089214	0.0	501.3999050954199	485.8180522334714	0.0	496.5959753683753	506.24441107140285	0.0	500.5811837618209	529.732128064367	0.0	500.8589083403652	564.1156465098834	0.0	499.71588819084	592.1242757641152	0.0	518.3187866187291	528.0385347299067	0.0	522.493632082331	565.1224724932276	0.0	518.279078818183	597.2982798038107	0.0
